<?xml version="1.0" standalone="no"?><!DOCTYPE svg PUBLIC "-//W3C//DTD SVG 1.1//EN" "http://www.w3.org/Graphics/SVG/1.1/DTD/svg11.dtd"><svg t="1624422827493" class="icon" viewBox="0 0 1024 1024" version="1.1" xmlns="http://www.w3.org/2000/svg" p-id="11731" xmlns:xlink="http://www.w3.org/1999/xlink" width="200" height="200"><defs><style type="text/css"></style></defs><path d="M511.951547 830.189079A27.521151 27.521151 0 0 1 484.527302 802.667928v-581.432762a27.521151 27.521151 0 0 1 54.945396 0v581.432762a27.521151 27.521151 0 0 1-27.521151 27.521151zM725.14356 830.189079A27.521151 27.521151 0 0 1 697.719315 802.667928v-387.621841a27.521151 27.521151 0 0 1 54.945396 0v387.621841a27.521151 27.521151 0 0 1-27.521151 27.521151zM297.402858 830.189079a27.521151 27.521151 0 0 1-27.424245-27.521151v-387.621841a27.521151 27.521151 0 0 1 54.945396 0v387.621841a27.521151 27.521151 0 0 1-27.521151 27.521151z" p-id="11732" fill="#d81e06"></path><path d="M899.573389 1024h-775.243683A124.523517 124.523517 0 0 1 0 899.573389v-775.243683A124.523517 124.523517 0 0 1 124.329706 0h775.243683a124.523517 124.523517 0 0 1 124.426611 124.329706v775.243683a124.523517 124.523517 0 0 1-124.426611 124.426611z m-775.243683-969.054604a69.481215 69.481215 0 0 0-69.38431 69.38431v775.243683a69.481215 69.481215 0 0 0 69.38431 69.481215h775.243683a69.481215 69.481215 0 0 0 69.481215-69.481215v-775.243683a69.481215 69.481215 0 0 0-69.481215-69.38431z" p-id="11733" fill="#d81e06"></path></svg>